<?xml version="1.0" encoding="utf-8"?>
<!-- Generator: Adobe Illustrator 23.0.1, SVG Export Plug-In . SVG Version: 6.00 Build 0)  -->
<svg version="1.1" id="Capa_1" xmlns="http://www.w3.org/2000/svg" xmlns:xlink="http://www.w3.org/1999/xlink" x="0px" y="0px"
	 viewBox="0 0 91.8 91.8" style="enable-background:new 0 0 91.8 91.8;" xml:space="preserve">
<style type="text/css">
	.st0{fill:#FFFFFF;}
</style>
<g>
	<path class="st0" d="M79,0H12.9c-1.1,0-2,0.9-2,2v87.8c0,1.1,0.9,2,2,2h19.4c1.1,0,2-0.9,2-2V73.9h23.3v15.9c0,1.1,0.9,2,2,2H79
		c1.1,0,2-0.9,2-2V2C81,0.9,80.1,0,79,0z M33,59c0,0.8-0.7,1.5-1.5,1.5h-8.9c-0.8,0-1.5-0.7-1.5-1.5v-8.9c0-0.8,0.7-1.5,1.5-1.5h8.9
		c0.8,0,1.5,0.7,1.5,1.5V59z M33,40.1c0,0.8-0.7,1.5-1.5,1.5h-8.9c-0.8,0-1.5-0.7-1.5-1.5v-8.9c0-0.8,0.7-1.5,1.5-1.5h8.9
		c0.8,0,1.5,0.7,1.5,1.5V40.1z M33,21.2c0,0.8-0.7,1.5-1.5,1.5h-8.9c-0.8,0-1.5-0.7-1.5-1.5v-8.9c0-0.8,0.7-1.5,1.5-1.5h8.9
		c0.8,0,1.5,0.7,1.5,1.5V21.2z M51.9,59c0,0.8-0.7,1.5-1.5,1.5h-8.9c-0.8,0-1.5-0.7-1.5-1.5v-8.9c0-0.8,0.7-1.5,1.5-1.5h8.9
		c0.8,0,1.5,0.7,1.5,1.5V59z M51.9,40.1c0,0.8-0.7,1.5-1.5,1.5h-8.9c-0.8,0-1.5-0.7-1.5-1.5v-8.9c0-0.8,0.7-1.5,1.5-1.5h8.9
		c0.8,0,1.5,0.7,1.5,1.5V40.1z M51.9,21.2c0,0.8-0.7,1.5-1.5,1.5h-8.9c-0.8,0-1.5-0.7-1.5-1.5v-8.9c0-0.8,0.7-1.5,1.5-1.5h8.9
		c0.8,0,1.5,0.7,1.5,1.5V21.2z M70.7,59c0,0.8-0.7,1.5-1.5,1.5h-8.9c-0.8,0-1.5-0.7-1.5-1.5v-8.9c0-0.8,0.7-1.5,1.5-1.5h8.9
		c0.8,0,1.5,0.7,1.5,1.5V59z M70.7,40.1c0,0.8-0.7,1.5-1.5,1.5h-8.9c-0.8,0-1.5-0.7-1.5-1.5v-8.9c0-0.8,0.7-1.5,1.5-1.5h8.9
		c0.8,0,1.5,0.7,1.5,1.5V40.1z M70.7,21.2c0,0.8-0.7,1.5-1.5,1.5h-8.9c-0.8,0-1.5-0.7-1.5-1.5v-8.9c0-0.8,0.7-1.5,1.5-1.5h8.9
		c0.8,0,1.5,0.7,1.5,1.5V21.2z"/>
</g>
</svg>
